<svg width="900" height="560" viewBox="0 0 900 560" fill="none" xmlns="http://www.w3.org/2000/svg">
  <rect width="900" height="560" rx="48" fill="#1A1324"/>
  <circle cx="710" cy="126" r="108" fill="#62FAE3" opacity=".2"/>
  <circle cx="196" cy="390" r="156" fill="#9C48EA" opacity=".24"/>
  <path d="M120 410c124-76 236-82 340-26s210 58 320-18" stroke="#62FAE3" stroke-width="22" stroke-linecap="round" opacity=".58"/>
  <path d="M282 316c22-78 108-104 174-54 68-54 156-24 178 54 24 84-50 156-178 184-128-28-202-100-174-184Z" fill="#F8F5FF" opacity=".14"/>
  <circle cx="342" cy="264" r="44" fill="#F8F5FF" opacity=".68"/>
  <circle cx="570" cy="264" r="44" fill="#F8F5FF" opacity=".68"/>
  <path d="M340 338c38 24 76 24 114 0 38 24 76 24 114 0" stroke="#F8F5FF" stroke-width="18" stroke-linecap="round" opacity=".74"/>
  <path d="M454 270v118" stroke="#62FAE3" stroke-width="18" stroke-linecap="round"/>
  <path d="M454 388c-32 22-64 38-98 48M454 388c32 22 64 38 98 48" stroke="#62FAE3" stroke-width="18" stroke-linecap="round"/>
</svg>
